<svg width="1024" height="1024" viewBox="0 0 1024 1024" fill="none" xmlns="http://www.w3.org/2000/svg">
<!--
  Tenon macOS app-icon master.
  Built to Apple's macOS icon grid: 824x824 squircle centered on a 1024 canvas
  => 100px transparent gutter on all four sides; corner radius 185.4 (0.225 * 824).
  macOS does NOT auto-mask app icons, so the shipped shape must already be the
  squircle. The brand glyph (white + rose) sits on the dark squircle fill.
  Source of truth for build/icon.icns + build/icon.png — regenerate via
  scripts/gen-icon.sh after editing.
-->
<g transform="translate(100,100) scale(0.657097)">
<path d="M282.15 0 H971.85 A282.15 282.15 0 0 1 1254 282.15 V971.85 A282.15 282.15 0 0 1 971.85 1254 H282.15 A282.15 282.15 0 0 1 0 971.85 V282.15 A282.15 282.15 0 0 1 282.15 0 Z" fill="#1E1E1E"/>
<path d="M698.235 243.843C699.282 243.78 700.33 243.745 701.377 243.737C710.482 243.713 719.715 250.105 727.332 254.623C742.854 263.836 758.345 273.113 773.867 282.33L881.308 345.848L931.028 375.182C938.026 379.292 957.381 389.978 962.243 394.918C968.127 400.837 971.868 408.548 972.872 416.832C973.968 425.331 973.356 451.326 973.344 461.349L973.368 548.544L973.35 729.353C973.356 761.989 973.338 794.698 973.332 827.261C973.332 839.348 969.737 852.739 959.628 859.872C948.717 867.575 934.983 875.18 923.49 882.019L841.876 930.452L754.408 982.345C741.042 990.262 727.534 998.663 713.99 1006.26C708.59 1009.29 703.771 1009.71 697.74 1009.64C689.161 1008.25 684.055 1004.65 677.135 999.882C658.999 987.391 661.381 972.377 661.393 953.444V913.149C661.393 899.029 661.699 884.168 661.369 870.098C660.879 848.942 676.388 843.64 692.217 833.825L733.884 807.961C744.734 801.201 758.217 795.237 758.401 780.407C758.737 752.909 759.356 723.989 758.149 696.564C757.598 684.049 738.715 675.813 728.563 670.26L693.074 650.801L589.032 593.332C569.514 582.582 549.886 571.932 530.584 560.885C517.764 553.548 518.29 544.283 518.238 531.325C518.194 520.322 518.373 511.72 528.651 505.027C539.551 497.928 550.66 491.348 561.701 484.588L624.747 445.839C666.261 420.318 661.516 427.299 661.509 378.45L661.454 306.489C661.442 300.557 661.026 282.505 661.834 277.306C662.599 272.296 664.54 267.538 667.492 263.417C673.78 254.658 687.398 245.716 698.235 243.843Z" fill="white"/>
<path d="M550.486 245.081C556.828 244.721 562.288 245.056 568.048 248.123C578.745 253.817 589.942 261.375 593.338 273.695C596.015 283.409 594.617 318.813 594.631 331.651C594.642 342.826 596.104 385.621 593.043 392.76C591.498 396.364 588.755 399.597 585.831 402.161C579.381 407.819 570.9 412.177 563.619 416.713L506.719 452.113C459.654 481.203 465.248 472.316 465.293 527.879L465.345 561.531C465.357 566.169 465.007 574.541 465.807 578.944C468.391 593.155 485.909 599.908 497.228 606.19L534.893 627.031L657.75 694.715L684.575 709.563C688.751 711.884 693.955 714.664 697.96 717.395C708.014 724.253 707.695 748.549 701.97 757.617C698.419 763.244 685.738 770.506 679.535 774.505L630.869 805.714C622.346 811.157 613.602 816.515 605.319 822.295C598.281 827.206 595.091 833.825 594.77 842.293C594.348 853.461 594.539 864.807 594.543 876.031L594.611 940.182C594.648 953.347 596.612 975.261 590.833 986.374C586.179 995.32 571.81 1005.6 562.271 1008.31C545.54 1012 532.087 1000.18 518.171 991.983L459.589 957.161L356.218 895.649C338.259 884.995 320.204 874.42 302.276 863.619C279.981 850.185 283.008 830.953 283.148 808.359C283.176 803.932 283.162 799.419 283.169 795.017L283.199 699.681L283.189 512.378L283.16 452.342C283.154 441.39 282.968 430.168 283.391 419.25C283.79 408.979 291.014 396.834 299.738 391.548C310.447 385.059 321.31 378.758 332.074 372.37L401.627 331.001L492.43 277.049C502.777 270.929 540.597 246.948 550.486 245.081Z" fill="#E11D48"/>
</g>
</svg>
